<?xml version="1.0" standalone="no"?><!DOCTYPE svg PUBLIC "-//W3C//DTD SVG 1.1//EN" "http://www.w3.org/Graphics/SVG/1.1/DTD/svg11.dtd"><svg t="1722667639203" class="icon" viewBox="0 0 1025 1024" version="1.1" xmlns="http://www.w3.org/2000/svg" p-id="3801" xmlns:xlink="http://www.w3.org/1999/xlink" width="200.1953125" height="200"><path d="M198.584302 933.644588 249.81783 970.867924 305.311479 647.315032C307.276076 635.860567 303.478502 624.172835 295.156348 616.060737L60.081417 386.919307 40.511947 447.14793 365.377518 399.942199C376.878451 398.271015 386.820643 391.047599 391.964019 380.625982L537.248309 86.247837 473.920194 86.247837 619.204484 380.625982C624.34786 391.047599 634.290052 398.271015 645.790985 399.942199L970.656556 447.14793 951.087086 386.919307 716.012156 616.060737C707.690002 624.172835 703.892427 635.860567 705.857024 647.315032L761.350674 970.867924 812.584201 933.644588 522.015603 780.883636C511.728852 775.475569 499.439651 775.475569 489.1529 780.883636L198.584302 933.644588ZM489.1529 843.392226 779.721498 996.15318C805.626138 1009.772053 835.902358 987.77508 830.955026 958.929844L775.461358 635.376954 765.306227 666.631249 1000.381158 437.489821C1021.338447 417.061512 1009.773956 381.469662 980.811688 377.261199L655.946116 330.055468 682.532617 349.371687 537.248309 54.993542C524.295998 28.749279 486.872505 28.749279 473.920194 54.993542L328.635886 349.371687 355.222387 330.055468 30.356815 377.261199C1.394547 381.469662-10.169944 417.061512 10.787346 437.489821L245.862276 666.631249 235.707145 635.376954 180.213478 958.929844C175.266145 987.77508 205.542365 1009.772053 231.447005 996.15318L522.015603 843.392226 489.1529 843.392226Z" fill="#389BFF" p-id="3802"></path></svg>