<?xml version="1.0" standalone="no"?><!DOCTYPE svg PUBLIC "-//W3C//DTD SVG 1.1//EN" "http://www.w3.org/Graphics/SVG/1.1/DTD/svg11.dtd"><svg t="1722670267611" class="icon" viewBox="0 0 1024 1024" version="1.1" xmlns="http://www.w3.org/2000/svg" p-id="2556" xmlns:xlink="http://www.w3.org/1999/xlink" width="200" height="200"><path d="M774.9 603c-17.6 17.5-25.7 42.4-21.7 66.9L788.6 881c5.6 33.1-29.4 58.2-59 42.2l-159.5-85.8a122.08 122.08 0 0 0-115.6 0L295 923.3c-29.6 15.9-64.5-9.1-59-42.2L271.4 670c4.1-24.5-4-49.4-21.7-66.9L95.4 448.9c-23.5-23.4-10.2-63.6 22.6-68.5l208.7-31.1c26.1-3.7 48.7-20.2 60.3-43.9L475.9 121c14.7-30.5 58.1-30.5 72.8 0l88.9 184.5c11.6 23.7 34.2 40.1 60.3 43.9l208.8 31.1c32.8 4.9 46.1 45.1 22.6 68.5L774.9 603z" fill="#3259CE" p-id="2557"></path></svg>