<?xml version="1.0" standalone="no"?><!DOCTYPE svg PUBLIC "-//W3C//DTD SVG 1.1//EN" "http://www.w3.org/Graphics/SVG/1.1/DTD/svg11.dtd"><svg t="1722431436395" class="icon" viewBox="0 0 1024 1024" version="1.1" xmlns="http://www.w3.org/2000/svg" p-id="4519" xmlns:xlink="http://www.w3.org/1999/xlink" width="200" height="200"><path d="M829.44 301.55776h-123.97056c-0.75776-0.04096-1.50528-0.11264-2.26816-0.11264h-70.76864v-49.93024c0-22.58432-18.37568-40.96-40.96-40.96h-153.6c-22.58432 0-40.96 18.37568-40.96 40.96v49.93024H324.32128c-0.768 0-1.51552 0.07168-2.26816 0.11264H194.56v40.96h88.80128v429.96736c0 22.58432 18.37568 40.96 40.96 40.96h378.88c22.58432 0 40.96-18.37568 40.96-40.96V342.51776H829.44v-40.96z m-391.56736-50.04288h153.6l-0.05632 49.93024H437.87264v-49.93024z m265.32864 541.45024v-20.48h0.00512l-0.00512 20.48z m-0.06144-20.48H324.32128V342.51776h104.05888a40.86784 40.86784 0 0 0 9.49248 1.15712h153.6c3.27168 0 6.44096-0.42496 9.49248-1.15712h102.24128l-0.06656 429.96736z" fill="" p-id="4520"></path><path d="M423.936 464.69632a20.48 20.48 0 0 0-20.48 20.48v153.6a20.48 20.48 0 0 0 40.96 0v-153.6a20.48 20.48 0 0 0-20.48-20.48zM600.28928 464.69632a20.48 20.48 0 0 0-20.48 20.48v153.6a20.48 20.48 0 0 0 40.96 0v-153.6a20.48 20.48 0 0 0-20.48-20.48zM514.67264 464.69632a20.48 20.48 0 0 0-20.48 20.48v153.6a20.48 20.48 0 0 0 40.96 0v-153.6a20.48 20.48 0 0 0-20.48-20.48z" fill="" p-id="4521"></path></svg>