<?xml version="1.0" standalone="no"?><!DOCTYPE svg PUBLIC "-//W3C//DTD SVG 1.1//EN" "http://www.w3.org/Graphics/SVG/1.1/DTD/svg11.dtd"><svg t="1722163191801" class="icon" viewBox="0 0 1024 1024" version="1.1" xmlns="http://www.w3.org/2000/svg" p-id="932" xmlns:xlink="http://www.w3.org/1999/xlink" width="200" height="200"><path d="M119.2 204.9c-22 0-39.8-17.7-40-39.7-0.1-22.1 17.6-40.1 39.7-40.3l785.6-5.1h0.3c22 0 39.8 17.7 40 39.7 0.1 22.1-17.6 40.1-39.7 40.3l-785.6 5.1h-0.3zM119.2 528.9c-22 0-39.8-17.7-40-39.7-0.1-22.1 17.6-40.1 39.7-40.3l785.6-5.1h0.3c22 0 39.8 17.7 40 39.7 0.1 22.1-17.6 40.1-39.7 40.3l-785.6 5.1h-0.3zM119.2 904.2c-22 0-39.8-17.7-40-39.7-0.1-22.1 17.6-40.1 39.7-40.3l785.6-5.1h0.3c22 0 39.8 17.7 40 39.7 0.1 22.1-17.6 40.1-39.7 40.3l-785.6 5.1h-0.3z" fill="#333333" p-id="933"></path></svg>